<?xml version="1.0" encoding="utf-8"?>
<!-- Generator: Adobe Illustrator 21.1.0, SVG Export Plug-In . SVG Version: 6.00 Build 0)  -->
<svg version="1.1" id="圖層_1" xmlns="http://www.w3.org/2000/svg" xmlns:xlink="http://www.w3.org/1999/xlink" x="0px" y="0px"
	 viewBox="0 0 284.6 39.2" style="enable-background:new 0 0 284.6 39.2;" xml:space="preserve">
<style type="text/css">
	.st0{fill:#070606;}
</style>
<g>
	<path class="st0" d="M14.7,64.4v3.3h1.7v3.7h-1.7v2.9h1.7V78h-1.7v18.5H6.9V78.1H5v18.5H1.2V74.4h5.6v-2.9H0.6v-3.7h6.3v-3.4H1
		v-3.7h16.5v3.7H14.7z M20.8,96.6h-4.1V85.3h4.1V96.6z M32.7,76.9H18.5v-3.1h14.2v-3H18.3v-3.5h13l1.2-2.6h-14l2.6-4.8h7.5l-0.7,1.4
		h12.5v2.3l-1.7,3.7h2.2v16.3H18.3v-3.4h14.4C32.7,80.2,32.7,76.9,32.7,76.9z M40.5,96.6H22.4V85.3h6.4v7.9h11.8L40.5,96.6
		L40.5,96.6z M30.6,85.3h3.8v6.4h-3.8C30.6,91.7,30.6,85.3,30.6,85.3z M36.4,91.7v-6.5h3.8v6.5H36.4z"/>
	<path class="st0" d="M56.7,96.7h-9V79.2L44,80.7v-6.3l12.7-5.9V96.7z M44.1,72.1v-6.5l12.4-5.9v6.6L44.1,72.1z M69.1,73.9h-10v-3.7
		h25.5v3.7h-5.9v22.8h-18v-3.2H69L69.1,73.9L69.1,73.9z M83.5,64.4H60.1v-3.8h23.4V64.4z"/>
	<path class="st0" d="M120,60.9h10.7V64h-6.9l-1.1,2.8h9.5v-6h18.5v15.9h-18.5v-6.8H129l1.7,6.8h-6l-1.7-6.8h-1.4l-2.5,6.8h-7.4
		l2.7-6.8h-3.3v-3h4.5l1.1-2.8H111l2.4-4.2h7.1L120,60.9z M113.4,96.6V78.5h36.5v18.1H113.4z M123,85.5h17.2V82H123V85.5z M123,88.6
		v4.6h17.2v-4.6H123z M139.6,64.1v9.6h3.8v-9.6H139.6z"/>
	<path class="st0" d="M165,92.8h29.6v3.7h-38.4V73.8h-2.4v-3.7H165V92.8z M156.5,66.5l-1.9-6.7h8.1l2,6.7H156.5z M192,65.6V74h2.8
		v3.4H192v13.4h-9V77.5h-4.6v13.4h-9V77.5h-2.8v-3.4h2.8v-8.5H167v-3.4h2.4v-2.3h9v2.3h4.6v-2.3h9v2.3h2.5v3.4H192z M183,65.6h-4.6
		V74h4.6V65.6z"/>
	<path class="st0" d="M230.3,76.6l2.8-11.7h-12.2v-4h18.7v4.3l-3,12l3.1,18.1l4.3-26.6h7.7l-0.5,3.1h6.7l4,24.8h-7.6L251,73.5
		l-3.7,23.2h-7.9l0,0h-6.6l-2.6-18.4l-2.5,18.4h-6.8l3-19.5l-2.5-10.3h6.5L230.3,76.6z M243,66.6h-2.6l2.1-6.7h8.3l-0.9,3.1h12v7.6
		h-6.4v-3.9L243,66.6L243,66.6z"/>
	<path class="st0" d="M286.7,84.3v-1.4l6.2-2.4h-27.4v-2.8h38.4v3l-7.3,3.3v0.4h8.4v3.1h-8.4v9.2h-22.8v-2.8h12.9v-6.4h-22.5v-3.1
		L286.7,84.3L286.7,84.3z M289.3,61.7h15.5v3.4h-40.5v-3.4H280v-1.9h9.3V61.7z M266.3,75.8v-9.2H303v9.1h-36.7V75.8z M275.7,72.9h18
		v-3.5h-18V72.9z"/>
</g>
<g>
	<path d="M0.9,10.9H6V6.5C4.6,6.7,3.2,6.8,1.7,6.8C1.6,5.5,1.3,4,1,2.1c4-0.2,8.4-0.7,13.2-1.6l1.1,4.7c-1.4,0.3-2.8,0.6-4.4,0.8
		v4.9h4v4.6h-4v2.6l0.5-0.4c1.1,1,2.4,2.3,4.1,4v-0.4h16.7v-2h-16V16h16v-2H15.8v-3.1c-0.8-0.8-1.6-1.5-2.4-2.1
		c2.5-2.3,4.6-5.2,6.4-8.6h5.3c-0.6,1.1-1.2,2.2-1.8,3.2h11.5v3.2L32.4,10h4.7v15.4h-8.3c0.5,1,0.9,2.1,1.4,3.2L26,30.1
		c-0.6-1.8-1.1-3.3-1.7-4.8h-8.8v-2.9l-2.6,2.9c-0.7-1-1.4-1.9-2-2.7v15.7H6V22.8c-0.9,3-2.1,5.8-3.4,8.4c-0.4-1.9-1-4.1-1.8-6.5
		c1.6-2.4,3.1-5.5,4.5-9.3H0.9V10.9z M14.3,27.2l4,1.3c-0.7,2.2-1.7,4.8-2.9,7.8c-1.3-0.6-2.6-1.1-3.9-1.6
		C12.5,32.2,13.5,29.7,14.3,27.2z M18.6,10h8.7l1.6-2.4h-8.5C19.9,8.5,19.2,9.2,18.6,10z M29.9,29.3c1.1,0.5,2.4,1,3.7,1.5l-1.1-3.5
		l4.1-0.9c1,3,1.9,5.8,2.6,8.2l-4.2,1l-0.9-3.3c-0.8,2.6-1.7,4.2-2.8,4.8S28.9,38,27.6,38h-3.4c-3.6,0-5.4-1.7-5.4-5.1v-6.3h4.7v4.9
		c0,1.5,0.7,2.2,2.2,2.2h1.5c0.9,0,1.5-0.2,1.8-0.6C29.2,32.6,29.6,31.4,29.9,29.3z"/>
	<path d="M50.5,9.9l4.5,2.9c-1.1,1.7-2.4,3.3-3.7,4.9v20h-5.4V23.5c-1.2,1.1-2.4,2.3-3.7,3.4c-0.5-1.4-1.2-3.2-2.1-5.4
		C44,18.1,47.5,14.2,50.5,9.9z M49.9-0.1c1.6,1.1,3.2,2.2,4.6,3.3c-2.7,3.1-6.3,6.5-10.8,10.1c-1-1.4-2.1-3-3.4-4.6
		C44.6,5.4,47.8,2.5,49.9-0.1z M55.5,13.7h23.1v5h-6v12.4c0,2.1-0.5,3.6-1.4,4.7c-1,1.1-2.3,1.7-4.1,1.8c-1.8,0.1-4.4,0.2-7.8,0.2
		c-0.4-1.7-0.8-3.5-1.4-5.4c2.7,0.2,4.8,0.3,6.3,0.3c1.9,0,2.8-1,2.8-3V18.7H55.5V13.7z M56.8,2.6h20.1v5H56.8V2.6z"/>
	<path d="M107.8,38.2V21c-0.4,0.2-0.9,0.4-1.3,0.5c-1-1.4-1.9-2.6-2.9-3.6c3.9-1.5,6.4-3.2,7.3-5h-6.9V9.1h2.4
		c-0.8-1.2-1.5-2.3-2.3-3.2c1.4-1.3,2.8-3.3,4.2-6h5c-0.4,1-0.9,1.9-1.3,2.7h10.8v3.8h-5.4c-0.1,0.9-0.2,1.8-0.3,2.7h6.9v3.8h-6
		l5.5,3.7l-2.5,2.9h16.5v18.8h-5.2v-1.7h-19.2v1.7H107.8z M107.1,9.1h4.9c0.1-0.8,0.2-1.7,0.3-2.7h-2.8
		C108.7,7.4,107.9,8.3,107.1,9.1z M110.7,19.4h8.9c-1.6-1.5-3.1-2.9-4.5-4.1C114,16.9,112.6,18.2,110.7,19.4z M132.2,23.5h-19.2v2.7
		h19.2V23.5z M112.9,32.4h19.2v-2.5h-19.2V32.4z M124.4,2.8h15.4v14.5h-15.4V2.8z M135.1,13.1V6.8h-5.8v6.3H135.1z"/>
	<path d="M181.4,32.1c-0.7,1.9-1.3,3.6-1.7,5.1c-1.7,0.1-5.6,0.1-11.6,0.1h-6.8c-2.6,0-4.9-0.3-6.9-0.9c-2-0.6-3.6-1.5-4.8-2.8
		l-4.5,4.6l-2.2-5.9c1.4-1.3,2.7-2.5,4-3.6v-10h-3.7v-4.9h8.8v15.4c2,2.1,5,3.2,9,3.2C172.1,32.4,178.9,32.3,181.4,32.1z M148.4,0.5
		c1.9,2.5,3.7,4.9,5.2,7.1l-4.5,3.1c-1.6-2.7-3.2-5.2-4.8-7.6L148.4,0.5z M153.5,17.4h5.5c0.1-0.9,0.1-3.1,0.1-6.6h-4.2V6.1h4.2V0.2
		h5.2v5.9h5.8V0.2h5.2v5.9h4.1v4.6h-4.1v6.6h5.6V22h-5.6v9.1h-5.2V22h-6.4c-0.6,3.8-1.8,7.1-3.5,9.8c-1.6-1.4-3.2-2.7-5-3.9
		c1.3-1.6,2.3-3.6,3-6h-4.7V17.4z M164.2,17.4h5.9v-6.6h-5.8C164.3,13.4,164.3,15.6,164.2,17.4z"/>
	<path d="M210.3,10.6l4.2,6.5c0.8-2.8,1.2-5.8,1.4-8.8h-9.2v-5h14.3c0,7.7-1,14.1-3,19.4l4,6.6l-4.5,2.7c-0.6-1.1-1.3-2.4-2.1-3.8
		c-1.8,3.1-4.1,6-6.8,8.6c-0.9-2-1.7-3.9-2.6-5.6c2.7-2.7,4.9-5.5,6.3-8.3c-1.8-2.9-3.8-6.3-6.2-10.1L210.3,10.6z M229.2,12.5h5
		c0,2-0.1,4-0.4,5.9c2.3,7.5,5.8,12.3,10.8,14.3c-1,1.5-2.1,3.2-3.2,5.1c-4.3-2.5-7.4-6.4-9.4-11.9c-2,5.2-5.4,9.4-10,12.7
		c-1-1.2-2.4-2.8-4.4-4.6c4-2.3,7-5.1,8.8-8.5C228.3,21.9,229.2,17.6,229.2,12.5z M243.7,5.3V10l-1.8,7.2l-5-1l1.7-6.1h-10.5
		c-1,3-2.1,5.7-3.2,8.3c-0.8-0.6-2.3-1.4-4.6-2.6c2.3-5,4.1-10.3,5.4-15.9l5.1,0.8c-0.4,1.6-0.8,3.2-1.3,4.7H243.7z"/>
	<path d="M245.9,26.7h17.6v-0.5l7.7-2.1h-22.6v-4H280v4.3l-7.3,2.3h11.1v4.2h-15.1v1.9c0,1.7-0.5,3-1.4,3.9c-1,0.8-2.4,1.3-4.2,1.3
		c-1.9,0-4.1,0-6.7,0c-0.2-1.4-0.6-3-1.2-4.8c1.9,0.1,3.8,0.2,5.6,0.2c1,0,1.8-0.2,2.1-0.5s0.6-1,0.6-1.8h-17.6V26.7z M246.2,3.2
		h15.7c-0.3-0.8-0.7-1.7-1.1-2.6l6.2-0.9c0.5,1.2,0.9,2.4,1.3,3.5h15.2v4.1h-37.3V3.2z M250.3,18.4V8.9H279v9.5H250.3z M273.8,14.7
		v-2.1h-18.3v2.1H273.8z"/>
</g>
</svg>
