<?xml version="1.0" encoding="utf-8"?>
<!-- Generator: Adobe Illustrator 21.1.0, SVG Export Plug-In . SVG Version: 6.00 Build 0)  -->
<svg version="1.1" id="圖層_1" xmlns="http://www.w3.org/2000/svg" xmlns:xlink="http://www.w3.org/1999/xlink" x="0px" y="0px"
	 viewBox="0 0 629.5 106.8" style="enable-background:new 0 0 629.5 106.8;" xml:space="preserve">
<style type="text/css">
	.st0{fill:#723737;}
</style>
<path class="st0" d="M23.9,69.6v37.1H0V2.4h111.3v28.4H24l-0.1,9.7H35v-6.3h23.6v6.3H77v-6.3h23.6v6.3H112v9.1h-11.4v11h13v9.1H56.9
	v19.9L77,73.4h29.9v0.3l-8,5.8l14.4,26.6H88.9L81.8,92l-19.2,14.1h-5.7H32.4V69.6H23.9z M23.9,60.6H35v-11H23.9V60.6z M25.3,12.3
	v8.5h61.5v-8.5C86.8,12.3,25.3,12.3,25.3,12.3z M77.1,60.6v-11H58.7v11H77.1z"/>
<path class="st0" d="M178.3,74V63.9h-45V54h118.2v9.9h-45.3V74h42.2v9.1h-42.2v13.1h45.1v9.9H133.1v-9.9h45.2V83.1h-42.1V74H178.3z
	 M215.1,39.2v10.1h-21.9v-0.1h-53.7V12.6h-5.2V3.5h16V0h25.4v3.5h13.5v9.1h-23.6v27.6h27.6V2.6h56.3v46.7h-21.9V39.2H215.1z
	 M215.1,17.2h12.5v-6.3h-12.5V17.2z M215.1,24.5v7.3h12.5v-7.3H215.1z"/>
<path class="st0" d="M360.6,51.1h-58v43.7h58.2v11.7h-90.1v-67h58V12.4h-58.2V0.7h90.1V51.1z"/>
<path class="st0" d="M360.6,51.3h-58V95h58.2v11.7h-90.1v-67h58V12.5h-58.2V0.8h90.1V51.3z"/>
<path class="st0" d="M379.8,106.4V0.8h90.1v105.7L379.8,106.4L379.8,106.4z M410.8,93.7H439V13.4h-28.2V93.7z"/>
<path class="st0" d="M489.4,0.8h32.4v105.7h-32.4V0.8z"/>
<path class="st0" d="M539.1,1.2h90.1v105.4h-88.1V94.8h57.1V56.2h-59v-55H539.1z M598.1,44.5V12.8h-27.9v31.7H598.1z"/>
<rect x="302.2" y="94.8" class="st0" width="245.3" height="11.8"/>
</svg>
