<?xml version="1.0" encoding="utf-8"?>
<!-- Generator: Adobe Illustrator 22.1.0, SVG Export Plug-In . SVG Version: 6.00 Build 0)  -->
<svg version="1.1" id="圖層_1" xmlns="http://www.w3.org/2000/svg" xmlns:xlink="http://www.w3.org/1999/xlink" x="0px" y="0px"
	 viewBox="0 0 265 34" style="enable-background:new 0 0 265 34;" xml:space="preserve">
<style type="text/css">
	.st0{fill:#FFFFFF;}
</style>
<g id="圖層_2_1_">
	<g id="图层_1">
		<path class="st0" d="M145.9,0.3H131V17h5.6V4.6c0-0.3,0.2-0.6,0.5-0.6c0,0,0,0,0,0h8.2c0.3,0,0.5,0.3,0.5,0.6V17h5.6V6
			C151.5,2.9,149,0.4,145.9,0.3z"/>
		<path class="st0" d="M35,0.4h-8.8c-3.3-0.1-6,2.4-6.2,5.7v5.3c0.2,3.3,2.9,5.8,6.2,5.7h8.7c3.1,0.1,5.6-2.3,5.7-5.4
			c0-0.1,0-0.2,0-0.3V6c0.1-3-2.3-5.5-5.3-5.6C35.2,0.4,35.1,0.4,35,0.4z M34.8,12.8c0,0.3-0.3,0.6-0.6,0.6c0,0,0,0,0,0h-8
			c-0.3,0-0.6-0.3-0.6-0.6V4.6c0-0.3,0.3-0.6,0.6-0.6c0,0,0,0,0.1,0h8.1c0.3,0,0.6,0.2,0.6,0.5c0,0,0,0,0,0L34.8,12.8z"/>
		<path class="st0" d="M0.1,6v11h5.6v-5.1c0-0.7,0.5-1.3,1.2-1.3c0,0,0.1,0,0.1,0h9.6V7.7H6.2c-0.3,0-0.5-0.3-0.5-0.6V4.6
			c0-0.3,0.2-0.6,0.5-0.6c0,0,0,0,0,0h11.2V0.4H5.3C2.3,0.5,0,3,0.1,6z"/>
		<path class="st0" d="M122.7,4.6V17h5.6V6c-0.1-3.1-2.6-5.5-5.6-5.6h-14.9V17h5.6V4.6c0-0.3,0.3-0.5,0.6-0.5c0,0,0,0,0,0h8.2
			C122.4,4,122.7,4.3,122.7,4.6z"/>
		<path class="st0" d="M57,7.4l6.2-7.1h-6.7l-2.6,3.1c-0.7,0.7-1.8,0.7-2.5,0c0,0,0,0,0,0l-2.7-3.1h-6.6l6.2,7.1
			c0.7,0.7,0.6,1.8-0.1,2.5c0,0,0,0,0,0l-6,7.1h6.6l2.6-3c0.7-0.7,1.8-0.7,2.6,0l2.7,3h6.6L57,10c-0.7-0.7-0.8-1.8-0.1-2.5
			C56.9,7.5,57,7.4,57,7.4z"/>
		<path class="st0" d="M64.6,6.1v5.3c0,3.1,2.5,5.6,5.6,5.7c0,0,0,0,0,0H82v-3.6H70.8c-0.3,0-0.6-0.2-0.6-0.5c0,0,0,0,0,0V4.6
			c0-0.3,0.2-0.6,0.5-0.6c0,0,0,0,0,0H82V0.4l-11.8,0C67.1,0.4,64.6,2.9,64.6,6.1C64.6,6,64.6,6,64.6,6.1z"/>
		<path class="st0" d="M99.5,0.4h-8.8c-3.4,0-6.2,2.5-6.2,5.6v5.3c0,3.1,2.8,5.6,6.2,5.6l4.1,0h4.6c3.1,0.1,5.6-2.3,5.7-5.4
			c0-0.1,0-0.2,0-0.3V6c0.1-3-2.3-5.5-5.3-5.6C99.7,0.4,99.6,0.4,99.5,0.4z M99.3,12.8c0,0.3-0.2,0.6-0.6,0.6c0,0,0,0-0.1,0h-8
			c-0.3,0-0.6-0.3-0.6-0.6V4.6c0-0.3,0.3-0.5,0.6-0.5c0,0,0,0,0,0h8.1c0.3,0,0.6,0.2,0.6,0.5L99.3,12.8z"/>
		<polygon class="st0" points="10,24 6.2,24 6.2,23.3 6.2,22.9 4.4,23 4.4,24 0.1,24 0,24 0,26.7 0.1,26.8 1.5,26.8 1.6,26.7 
			1.6,25.2 9.1,25.2 9.1,26.7 9.1,26.7 10.7,26.7 10.7,26.7 10.7,24 10.7,23.9 		"/>
		<path class="st0" d="M9.9,29.6L9.9,29.6l-9,0l-0.1,0v4.2l0.1,0h1.5v-0.3h5.8v0.2h1.5l0.1-0.1L9.9,29.6z M4.6,32.5H2.4V32h2.2V32.5
			z M4.6,31.1H2.4v-0.5h2.2V31.1z M8.3,32.5H6.1V32h2.2V32.5z M8.3,31.1H6.1v-0.5h2.2V31.1z"/>
		<path class="st0" d="M2,27L2,27l0,2.2L2,29.3h6.7l0.1-0.1v-2.1L8.7,27H2z M7.2,28.3H3.5V28h3.7L7.2,28.3z"/>
		<polygon class="st0" points="8.8,26.6 8.8,25.5 8.8,25.5 1.9,25.5 1.8,25.5 1.8,26.6 1.9,26.6 8.8,26.6 		"/>
		<path class="st0" d="M34.1,26.6l-0.7,0h-3.7v-1.2c-0.1-0.7,0-1.4,0.1-2.1l-0.1,0l-1.6-0.1v3.5c0,0-3.8,0.1-4.4,0l0,0v1.6l0,0
			c0,0,0.7,0,0.9,0c1,0,3.5,0,3.5,0v3.5h-3.6l0,0v1.6l0,0h0h0.5c0,0,7.9-0.1,8.2,0h0.1v-1.7h-0.1c-0.5,0.1-3.6,0.1-3.6,0.1v-3.5h4.4
			h0.1v-1.6C34.2,26.6,34.1,26.6,34.1,26.6z"/>
		<path class="st0" d="M57.5,27.4h-0.7V26l-0.1-0.1H54v-0.3c-0.4,0-0.8-0.1-1.2-0.2h4.7v0V24v-0.1c0,0-0.4,0.1-0.5,0.1h-3.7
			c0-0.6,0-1,0.1-1l-0.1,0h-1.6l-0.1,0v1h-3.9h0l0,0.5v3.6c0.1,1.6-0.2,3.2-0.8,4.7l1.3,1.1l0.7-1.7c0.2,0.4,0.4,0.8,0.6,1.1h0.2
			l2.5-1.5v0.4c0,0,0,0.1-0.2,0.2h-0.7l0,0.2L52,34h0.8c0.6,0,1.2-0.5,1.2-1.1c0,0,0,0,0,0v-1.1c0.8,0.6,1.6,1.2,2.4,1.8h0.3
			l0.8-1.2v-0.1c-0.6-0.2-1.1-0.5-1.7-0.9c0,0,0.9-1,1.2-1.3v-0.1l-0.7-0.3h0.2l0.1-0.1v-1.4h1v-0.1v-0.8l-0.1-0.1L57.5,27.4z
			 M52.4,30.5l-1.2,0.6c0,0,0.4-0.5,0.4-0.6v-0.2c-0.2-0.2-0.4-0.4-0.6-0.6h1.3L52.4,30.5z M52.4,28.6h-2.7v1.1h0.6
			c-0.2,0.1-0.4,0.3-0.5,0.4v0.1c0.3,0.3,0.5,0.6,0.8,1l-1.5,0.5c0.2-1.2,0.2-2.4,0.2-3.5h3L52.4,28.6z M52.4,25.9h-2.7h-0.1V27
			l0.1,0.1h2.7v0.3h-3v-2h3L52.4,25.9z M54,27.1h1.3v0.3H54V27.1z M54,28.6v-0.4h1.3v0.4H54z M54.9,30.6c-0.3-0.2-0.6-0.4-0.9-0.6
			v-0.2h1.5C55.5,29.8,55,30.5,54.9,30.6L54.9,30.6z"/>
		<path class="st0" d="M81.1,28.5l-0.9,0.2V23l-1.4-0.1v6.3l-3.4,1l0.5-0.9v-0.1L75.7,29c-0.6-0.3-1.1-0.8-1.4-1.4l0,0h1.4v0v-1.3
			l-0.1-0.1l-0.2,0.1h-1.2v-1.7c0.5-0.1,1.1-0.2,1.6-0.4v-0.1c0,0-1.1-1-1.1-1.1c-1.3,0.4-2.6,0.6-3.9,0.7l-0.1,0.1l0.7,1.1l0.2,0
			l1.1-0.2v1.4h-1.9v1.4h0.1h0.4h1.1v0.3C72,29,71.4,30.1,70.7,31v0.1l0.9,1.1h0.1l0.9-1.3v2.9l0,0h1.5v-4.2l0,0
			c0.2,0.3,0.5,0.6,0.8,0.8c0,0,0.4,1.4,0.5,1.4h0.1l0.1,0l3-1.1v3.1h1.4v-0.9v-2.6l1.1-0.4v-1.3L81.1,28.5z"/>
		<path class="st0" d="M75.9,27.6c0.5,0.3,1,0.7,1.5,1.1l0,0c0.3-0.3,0.6-0.7,0.9-1.1v-0.1c-0.4-0.3-0.9-0.6-1.4-0.9h-0.2l-0.8,1
			L75.9,27.6z"/>
		<path class="st0" d="M77.5,25.4L77.5,25.4c0.4-0.3,0.7-0.7,0.9-1.1v-0.1c-0.5-0.3-1-0.6-1.6-0.8h-0.2l-0.7,0.9v0.1
			C76.4,24.8,77,25.1,77.5,25.4z"/>
		<path class="st0" d="M102.4,31.3l0.3-0.4c0.7-1,1.2-2.2,1.4-3.5l-0.2-0.1h-2v-1.3h2.6l0,0v-1.4H102v-1.4v-0.2h-1.4l-0.1,0v1.5
			h-2.1v0v0.5l-0.4,0h-0.7v-2L95.7,23l0,0v2.1h-1.5v0v1.4v0l0.4,0h1.1V28c0,0-1.4,0.4-1.5,0.4l0.3,1.7h0.2l1.1-0.4v2.1
			c-0.3,0.2-0.7,0.2-1.1,0.1v0.1c0.3,0.5,0.5,1,0.6,1.5c0.3,0,0.7,0,1-0.1c0.5,0,0.9-0.4,1-0.8v-3.5l1.3-0.6v-1.2l-0.2-0.1l-1.1,0.4
			v-1.1h1.3V26l0.5,0h1.5v1.4h-1.8l-0.2-0.1v1.5h0.4c0.2,0.9,0.6,1.8,1.1,2.6c-0.9,0.5-1.8,0.8-2.8,1.1l1.1,1.4c0.2,0,0.4,0,0.5-0.1
			c0.8-0.3,1.6-0.7,2.4-1.2c0.4,0.3,0.8,0.6,1.3,0.7c0.5,0.2,0.9,0.4,1.4,0.4c0.2-0.5,0.5-1,0.9-1.5l0,0
			C104,32.1,103.2,31.8,102.4,31.3z M102.2,28.8c-0.2,0.6-0.5,1.1-0.9,1.5c-0.4-0.4-0.7-1-0.8-1.6l0,0L102.2,28.8L102.2,28.8z"/>
		<path class="st0" d="M124.1,29.5V29h3.8l0.4,0.1V29V28l-0.1,0l-0.6,0h-3.5v-0.3h3l0.1,0v-1h-3.1v-0.3h3.1v-1l-0.1,0l-0.5,0h-2.6
			V25h3.8l0,0v-1.2h-3.4c0,0,0.4-0.7,0.4-0.7v-0.1l-1.8-0.1c-0.1,0-0.3,1-0.4,1h-1.1l0.4-0.6v-0.1h-0.1l-1.7-0.3
			c-0.7,0.9-1.5,1.8-2.3,2.6v0.2l0.7,1.3h0.2l0.3-0.3l0.5-0.4v3h1.5v-0.2h1.6v0.5H118l0,0v1.3l0,0c0.2,0,0.4,0,0.5,0h2.8V31
			l-0.1,0.1c-1.1,0.5-2.1,0.9-3.2,1.2v0.1c0.3,0.6,0.6,1,0.8,1.4h0.1c1.3-0.4,2.6-1.1,3.7-1.9l0,0v2l0,0h1.4h0.1v-2.3
			c1,0.9,2.2,1.6,3.5,2h0.3c0.2-0.5,0.5-0.9,0.8-1.3v-0.1c-1.1-0.2-2.2-0.6-3.1-1.2v-0.1h3.2l0.1,0v-1.3h-0.1L124.1,29.5z M122.7,28
			H121v-0.3h1.7L122.7,28z M122.7,26.7H121v-0.3h1.7L122.7,26.7z M122.7,25.4H121V25h1.7L122.7,25.4z"/>
		<path class="st0" d="M141.8,23.4l-0.1,0.1v10.3h1.4v-0.3h7.1v0.2h1.3h0.1V23.4H141.8z M147.5,31.4H147l0.3,0.8h-1.8l0.7-0.4v-0.1
			l-0.5-0.5h2.2C147.9,31.1,147.9,31.4,147.5,31.4z M147.9,30.2h-4.4l-0.1,0v0.8l0.1,0h1.3l-0.4,0.2v0.1c0.2,0.2,0.4,0.5,0.5,0.8
			h-1.9v-7.5h2.9V25h-2.5v0v0.8l0,0h0.2h2.3v0.3h-2l-0.1,0.1v2.6h2.1v0.3h-2.3h-0.3h-0.1v0.8h0.1h0.3h4.2L147.9,30.2z M145,27.2
			v-0.3h1v0.3H145z M146,27.8v0.3h-1v-0.3H146z M148.2,29l-0.1,0.2h-0.9v-0.3h1L148.2,29z M148.2,28.2h-1v-0.3h1V28.2z M148.2,27.2
			h-1v-0.3h1V27.2z M150.2,32.2h-1.4c0.2-0.1,0.2-0.2,0.2-0.5v-0.5h0.8l0.1-0.1v-0.8l-0.1,0H149V30l0.4-0.2l0.1-0.2l-0.4-0.6
			l0.2-0.1v-2.6l-0.1-0.1h-0.6h-1.5v-0.3h2.1l0.4,0h0.1V25l-0.1,0l-0.2,0h-2.3v-0.3h3L150.2,32.2z"/>
		<path class="st0" d="M157.1,5.8c-1.6,0-2.9-1.3-2.9-2.9c0,0,0,0,0,0c0-1.6,1.3-2.9,2.9-2.9c1.6,0,2.9,1.3,2.9,2.9
			S158.7,5.8,157.1,5.8C157.1,5.8,157.1,5.8,157.1,5.8z M157.1,0.3c-1.4,0-2.6,1.2-2.6,2.6c0,1.4,1.2,2.6,2.6,2.6
			c1.4,0,2.6-1.2,2.6-2.6C159.7,1.5,158.5,0.3,157.1,0.3C157.1,0.3,157.1,0.3,157.1,0.3z"/>
		<path class="st0" d="M158.5,4.2V3.6c0,0,0-0.5-0.5-0.6c0.5-0.2,0.7-0.8,0.5-1.3c0,0,0,0,0,0c-0.2-0.7-1.2-0.7-1.2-0.7h-1.8v3.9
			h0.5V3.2h1.3c0.3,0,0.6,0.2,0.7,0.5c0,0,0,0.1,0,0.1c0,0.3,0,0.7,0.1,1h0.6C158.6,4.6,158.5,4.4,158.5,4.2z M157.4,2.8H156V1.4
			h1.4c0.3,0,0.6,0.2,0.6,0.7S157.4,2.8,157.4,2.8z"/>
	</g>
</g>
<g>
	<g>
		<path class="st0" d="M184.5,16.2C184.5,16.2,184.5,16.2,184.5,16.2l-5.5-5.5V7.2c0-0.3-0.1-0.5-0.3-0.7l-5.8-5.9
			c-0.3-0.3-0.7-0.4-1.1-0.2c-0.4,0.1-0.6,0.5-0.6,0.9v2.9h-3c-0.4,0-0.7,0.2-0.9,0.6c-0.1,0.4-0.1,0.8,0.2,1.1l5.9,5.9
			c0.2,0.2,0.4,0.3,0.7,0.3h3.5l5.5,5.5c0,0,0,0,0,0c0.4,0.4,0.9,0.4,1.3,0C184.8,17.2,184.8,16.6,184.5,16.2z"/>
	</g>
</g>
<g>
	<g>
		<path class="st0" d="M183.8,0.4c-2.5,0-4.8,0.6-6.9,1.6l3,3c1.2-0.4,2.6-0.6,3.9-0.6c6.9,0,12.6,5.6,12.6,12.6
			s-5.6,12.6-12.6,12.6s-12.6-5.6-12.6-12.6c0-1.4,0.2-2.7,0.6-3.9l-3-3c-1,2.1-1.6,4.4-1.6,6.9c0,9.1,7.4,16.5,16.5,16.5
			s16.5-7.4,16.5-16.5S192.8,0.4,183.8,0.4z"/>
	</g>
</g>
<g>
	<g>
		<path class="st0" d="M183.8,8.2c-1,0-2,0.2-2.9,0.5v1.2l2.2,2.2c0.2,0,0.4-0.1,0.7-0.1c2.7,0,4.8,2.2,4.8,4.8s-2.2,4.8-4.8,4.8
			s-4.8-2.2-4.8-4.8c0-0.2,0-0.4,0.1-0.7l-2.2-2.2h-1.2c-0.3,0.9-0.5,1.9-0.5,2.9c0,4.8,3.9,8.7,8.7,8.7s8.7-3.9,8.7-8.7
			S188.6,8.2,183.8,8.2z"/>
	</g>
</g>
<polygon class="st0" points="232.8,0 223.3,0 212.8,11.5 212.8,0 205.3,0 205.3,33.8 212.8,33.8 212.8,21.9 214.3,20.2 223.4,33.8 
	232.7,33.8 219.6,14.8 "/>
<path class="st0" d="M256.9,20c1.1-0.7,2.1-1.5,2.9-2.6c1.3-1.7,2-4,2-6.6c0-1.4-0.2-2.8-0.7-4c-0.5-1.3-1.2-2.4-2.1-3.4
	c-0.9-1.1-2.2-1.9-3.7-2.5c-1.5-0.6-3.1-0.9-5-0.9h-12.6v33.8h7.5v-12h4.3l5.5,12h8.5L256.9,20z M245.3,7.1h4.7c1.5,0,2.5,0.3,3.3,1
	c0.7,0.6,1,1.6,1,3c0,1.2-0.3,2.1-1,2.7c-0.7,0.6-1.9,1-3.5,1h-4.5V7.1z"/>
</svg>
