<?xml version="1.0" encoding="utf-8"?>
<svg version="1.1" xmlns:xlink="http://www.w3.org/1999/xlink" width="25px" height="18px" xmlns="http://www.w3.org/2000/svg">
  <g transform="matrix(1 0 0 1 -32 -20 )">
    <path d="M 23.6049107142857 6.91619318181818  C 24.1350446428571 6.58380681818182  24.6000744047619 6.21306818181818  25 5.80397727272727  L 25 15.9545454545455  C 25 16.5170454545455  24.7814360119048 16.9985795454545  24.3443080357143 17.3991477272727  C 23.9071800595238 17.7997159090909  23.3816964285714 18  22.7678571428571 18  L 2.23214285714286 18  C 1.61830357142857 18  1.09281994047619 17.7997159090909  0.655691964285714 17.3991477272727  C 0.218563988095238 16.9985795454545  0 16.5170454545455  0 15.9545454545455  L 0 5.80397727272727  C 0.409226190476191 6.22159090909091  0.87890625 6.59232954545454  1.40904017857143 6.91619318181818  C 4.77585565476191 9.01278409090909  7.08705357142857 10.4829545454545  8.34263392857143 11.3267045454545  C 8.87276785714286 11.6846590909091  9.30292038690476 11.9637784090909  9.63309151785714 12.1640625  C 9.96326264880953 12.3643465909091  10.4027157738095 12.5688920454545  10.9514508928571 12.7776988636364  C 11.5001860119048 12.9865056818182  12.01171875 13.0909090909091  12.4860491071429 13.0909090909091  L 12.5 13.0909090909091  L 12.5139508928571 13.0909090909091  C 12.98828125 13.0909090909091  13.4998139880952 12.9865056818182  14.0485491071429 12.7776988636364  C 14.5972842261905 12.5688920454545  15.0367373511905 12.3643465909091  15.3669084821429 12.1640625  C 15.6970796130952 11.9637784090909  16.1272321428571 11.6846590909091  16.6573660714286 11.3267045454545  C 18.2384672619048 10.2784090909091  20.5543154761905 8.80823863636364  23.6049107142857 6.91619318181818  Z M 24.3373325892857 0.600852272727272  C 24.7791108630952 1.00142045454545  25 1.48295454545455  25 2.04545454545455  C 25 2.71875  24.7721354166667 3.36221590909091  24.31640625 3.97585227272727  C 23.8606770833333 4.58948863636364  23.2933407738095 5.11363636363636  22.6143973214286 5.54829545454545  C 19.1173735119048 7.77272727272727  16.9410342261905 9.15767045454546  16.0853794642857 9.703125  C 15.9923735119048 9.76278409090909  15.7947358630952 9.89275568181818  15.4924665178571 10.0930397727273  C 15.190197172619 10.2933238636364  14.9390811011905 10.4552556818182  14.7391183035714 10.5788352272727  C 14.5391555059524 10.7024147727273  14.2973400297619 10.8409090909091  14.013671875 10.9943181818182  C 13.7300037202381 11.1477272727273  13.4626116071429 11.2627840909091  13.2114955357143 11.3394886363636  C 12.9603794642857 11.4161931818182  12.7278645833333 11.4545454545455  12.5139508928571 11.4545454545455  L 12.5 11.4545454545455  L 12.4860491071429 11.4545454545455  C 12.2721354166667 11.4545454545455  12.0396205357143 11.4161931818182  11.7885044642857 11.3394886363636  C 11.5373883928571 11.2627840909091  11.2699962797619 11.1477272727273  10.986328125 10.9943181818182  C 10.7026599702381 10.8409090909091  10.4608444940476 10.7024147727273  10.2608816964286 10.5788352272727  C 10.0609188988095 10.4552556818182  9.80980282738095 10.2933238636364  9.50753348214286 10.0930397727273  C 9.20526413690476 9.89275568181818  9.00762648809524 9.76278409090909  8.91462053571429 9.703125  C 8.06826636904762 9.15767045454546  6.84988839285714 8.37997159090909  5.25948660714286 7.37002840909091  C 3.66908482142857 6.36008522727273  2.71577380952381 5.75284090909091  2.39955357142857 5.54829545454545  C 1.82291666666667 5.19034090909091  1.2788318452381 4.69815340909091  0.767299107142857 4.07173295454545  C 0.255766369047619 3.4453125  0 2.86363636363636  0 2.32670454545455  C 0 1.66193181818182  0.192987351190476 1.10795454545454  0.578962053571429 0.664772727272728  C 0.964936755952381 0.221590909090907  1.51599702380952 0  2.23214285714286 0  L 22.7678571428571 0  C 23.3723958333333 0  23.8955543154762 0.200284090909089  24.3373325892857 0.600852272727272  Z " fill-rule="nonzero" fill="#ffffff" stroke="none" transform="matrix(1 0 0 1 32 20 )" />
  </g>
</svg>