<?xml version="1.0" encoding="utf-8"?>
<!-- Generator: Adobe Illustrator 21.1.0, SVG Export Plug-In . SVG Version: 6.00 Build 0)  -->
<svg version="1.1" id="圖層_1" xmlns="http://www.w3.org/2000/svg" xmlns:xlink="http://www.w3.org/1999/xlink" x="0px" y="0px"
	 viewBox="0 0 1713.1 192.6" style="enable-background:new 0 0 1713.1 192.6;" xml:space="preserve">
<style type="text/css">
	.st0{fill:#FFFFFF;}
</style>
<g>
	<g>
		<path class="st0" d="M66.9,1.4C31.4,1.4,0,23.6,0,63.6v128.2h64.7V57.7c0-8,4.3-13.3,12.4-14.9c6,0,119.6,0,119.6,0V1.4H66.9z"/>
		<path class="st0" d="M188,117.1c0,0-105.5,0-112.6,0c-10.6,0-10.6,10.6-10.6,10.6V76c0,0,0,8.5,8.5,8.5c7.1,0,114.7,0,114.7,0
			V117.1z"/>
	</g>
	<path class="st0" d="M1480.3,0.2c0,0,119.7,0.3,163.7,0.3s69.1,31.2,69.1,69.1s0,121.5,0,121.5h-64.6c0,0,0-133.2,0-138.6
		c0-5.4-4.5-9-9-9s-81.3,0-86.7,0c-5.4,0-8.4,3.6-8.4,9s0,138.6,0,138.6h-64.1V0.2z"/>
	<path class="st0" d="M1219.5,0.2c0,0,119.7,0.3,163.7,0.3s69.1,31.2,69.1,69.1s0,121.5,0,121.5h-64.6c0,0,0-133.2,0-138.6
		c0-5.4-4.5-9-9-9s-81.3,0-86.7,0c-5.4,0-8.4,3.6-8.4,9s0,138.6,0,138.6h-64.1V0.2z"/>
	<g>
		<g>
			<path class="st0" d="M1127.6,0h-109.8c-34.7,0-62.7,28.1-62.7,62.7v65.1c0,34.7,28.1,62.7,62.7,62.7h109.8
				c34.7,0,62.7-28.1,62.7-62.7V62.7C1190.4,28.1,1162.3,0,1127.6,0z M1123.3,139.4c0,5.3-4.3,9.7-9.7,9.7h-84.1
				c-5.3,0-9.7-4.3-9.7-9.7V53.5c0-5.3,4.3-9.7,9.7-9.7h84.1c5.3,0,9.7,4.3,9.7,9.7V139.4z"/>
		</g>
	</g>
	<g>
		<g>
			<path class="st0" d="M398,0H288.2c-34.7,0-62.7,28.1-62.7,62.7v65.1c0,34.7,28.1,62.7,62.7,62.7H398c34.7,0,62.7-28.1,62.7-62.7
				V62.7C460.7,28.1,432.6,0,398,0z M393.7,139.4c0,5.3-4.3,9.7-9.7,9.7h-84.1c-5.3,0-9.7-4.3-9.7-9.7V53.5c0-5.3,4.3-9.7,9.7-9.7
				H384c5.3,0,9.7,4.3,9.7,9.7V139.4z"/>
		</g>
	</g>
	<g>
		<g>
			<path class="st0" d="M805.3,43.8h122.9V0h-133c-34.7,0-62.7,28.1-62.7,62.7v65.1c0,34.7,28.1,62.7,62.7,62.7h133V149H805.3
				c-5.3,0-9.7-4.3-9.7-9.7V53.5C795.6,48.1,800,43.8,805.3,43.8z"/>
		</g>
	</g>
	<path class="st0" d="M645.1,83.6C652.7,74.8,716,1.3,716,1.3h-77.2c0,0-25.1,29.2-31.2,36.3c-6.1,7.1-19.7,6.2-25,0
		S551.4,1.3,551.4,1.3h-77.2c0,0,64.3,74.7,70.9,82.4c6.6,7.6,6.8,18.6,0,26.5s-70.9,82.4-70.9,82.4h77.2c0,0,24.9-28.9,31.2-36.3
		c6.3-7.4,19.1-6.8,25,0s31.2,36.3,31.2,36.3H716c0,0-63.5-73.7-70.9-82.4C637.7,101.6,637.5,92.5,645.1,83.6z"/>
</g>
</svg>
